<svg width="543.9" height="74.305" viewBox="0 0 543.9 74.305" xmlns="http://www.w3.org/2000/svg"><g id="svgGroup" stroke-linecap="round" fill-rule="evenodd" font-size="9pt" stroke="#000" stroke-width="0.25mm" fill="black" style="stroke:#000;stroke-width:0.25mm;fill:black"><path d="M 275.9 73.4 L 275.9 16.9 L 298.1 70.6 L 306.9 70.6 L 328.1 16.9 L 328.1 73.4 L 337.7 73.4 L 337.7 0.6 L 326.3 0.6 L 302.4 60.2 L 278.1 0.6 L 266.7 0.6 L 266.7 73.4 L 275.9 73.4 Z M 468.8 70.3 L 470.9 69.4 L 470.9 34.9 L 443 34.9 L 443 42.2 L 461.6 42.2 L 461.6 63.2 Q 455.2 65.8 448.3 65.8 A 43.976 43.976 0 0 1 436.727 64.412 Q 423.486 60.792 419.917 47.727 A 41.526 41.526 0 0 1 418.6 36.8 Q 418.6 14.069 437.684 9.468 A 46.691 46.691 0 0 1 448.6 8.3 A 66.929 66.929 0 0 1 455.016 8.582 Q 461.266 9.187 464.835 11.089 A 9.324 9.324 0 0 1 468.4 14.2 L 469.4 4.9 Q 463.774 1.495 455.08 0.61 A 64.122 64.122 0 0 0 448.6 0.3 Q 414.613 0.3 409.648 27.923 A 57.637 57.637 0 0 0 408.8 37.8 Q 408.8 74.285 448.367 74.3 A 87.511 87.511 0 0 0 448.4 74.3 A 55.652 55.652 0 0 0 459.756 73.188 A 44.548 44.548 0 0 0 468.8 70.3 Z M 541.8 70.3 L 543.9 69.4 L 543.9 34.9 L 516 34.9 L 516 42.2 L 534.6 42.2 L 534.6 63.2 Q 528.2 65.8 521.3 65.8 A 43.976 43.976 0 0 1 509.727 64.412 Q 496.486 60.792 492.917 47.727 A 41.526 41.526 0 0 1 491.6 36.8 Q 491.6 14.069 510.684 9.468 A 46.691 46.691 0 0 1 521.6 8.3 A 66.929 66.929 0 0 1 528.016 8.582 Q 534.266 9.187 537.835 11.089 A 9.324 9.324 0 0 1 541.4 14.2 L 542.4 4.9 Q 536.774 1.495 528.08 0.61 A 64.122 64.122 0 0 0 521.6 0.3 Q 487.613 0.3 482.648 27.923 A 57.637 57.637 0 0 0 481.8 37.8 Q 481.8 74.285 521.367 74.3 A 87.511 87.511 0 0 0 521.4 74.3 A 55.652 55.652 0 0 0 532.756 73.188 A 44.548 44.548 0 0 0 541.8 70.3 Z M 205.7 73.1 L 256.7 73.1 L 256.7 65.3 L 215.2 65.3 L 215.2 38.6 L 248.4 38.6 L 248.4 30.8 L 215.2 30.8 L 215.2 8.9 L 255.6 8.9 L 255.6 1.1 L 205.7 1.1 L 205.7 73.1 Z M 0 0.6 L 0 73.1 L 9.6 73.1 L 9.6 41.7 L 14.5 36.7 L 44.2 73.1 L 56.2 73.1 L 19.7 32.2 L 53.3 0.6 L 40.9 0.6 L 9.6 32.3 L 9.6 0.6 L 0 0.6 Z M 66.1 0.6 L 66.1 73.1 L 75.7 73.1 L 75.7 41.7 L 80.6 36.7 L 110.3 73.1 L 122.3 73.1 L 85.8 32.2 L 119.4 0.6 L 107 0.6 L 75.7 32.3 L 75.7 0.6 L 66.1 0.6 Z M 145.8 54.3 L 175.8 54.3 L 182.6 73.4 L 193.7 73.4 L 166 0.6 L 157 0.6 L 128.2 73.4 L 139 73.4 L 145.8 54.3 Z M 362.7 73.7 L 362.7 0 L 353.7 0 L 353.7 73.7 L 362.7 73.7 Z M 148.2 45.5 L 161.8 10.6 L 173.1 45.5 L 148.2 45.5 Z M 382.6 61.1 L 382.6 73.4 L 393.9 73.4 L 393.9 61.1 L 382.6 61.1 Z" vector-effect="non-scaling-stroke"/></g></svg>